<svg xmlns="http://www.w3.org/2000/svg" width="857" height="283"><path fill="#D7D8C8" fill-rule="evenodd" d="M264.313 230.244h-35.885v46.393h-88.362v-46.393H0v-57.992L114.6 6.009h113.828v153.485h35.885v70.75zm87.276 35.938c-20.8-11.211-37.092-27.449-48.874-48.713-11.782-21.264-17.673-46.586-17.673-75.969 0-29.383 5.89-54.705 17.673-75.97 11.782-21.263 28.073-37.5 48.874-48.712C372.389 5.606 396.317 0 423.373 0c27.055 0 50.983 5.606 71.783 16.818 20.801 11.211 37.092 27.449 48.875 48.713 11.782 21.264 17.673 46.586 17.673 75.969 0 29.383-5.891 54.705-17.673 75.97-11.783 21.263-28.074 37.5-48.875 48.712-20.8 11.212-44.728 16.818-71.783 16.818-27.056 0-50.983-5.606-71.784-16.818zM537 138.075c0-47.491-28.247-88.4-68.743-107.075 11.06 11.953 17.881 27.895 17.881 45.433 0 36.943-30.024 67.003-66.923 67.003-30.998 0-56.215 25.246-56.215 56.282C363 230.753 388.217 256 419.215 256 484.158 256 537 203.084 537 138.075zm-116.137-45.02c11.821 0 21.415-9.606 21.415-21.441 0-11.835-9.594-21.441-21.415-21.441-11.81 0-21.416 9.606-21.416 21.44 0 11.836 9.605 21.442 21.416 21.442zM857 230.244h-35.885v46.393h-88.361v-46.393H592.687v-57.992l114.6-166.243h113.828v153.485H857v70.75zM420.863 221.7c-11.81 0-21.416-9.606-21.416-21.441 0-11.836 9.605-21.441 21.416-21.441 11.821 0 21.415 9.605 21.415 21.44 0 11.836-9.594 21.442-21.415 21.442z"/></svg>