<svg xmlns="http://www.w3.org/2000/svg" width="25" height="16"><path fill="#E2C56A" d="M18.955 7.632a.119.119 0 01.106.013c.031.022.05.058.05.096v4.12c0 2.742-3.085 3.9-7.333 3.9-4.249 0-7.332-1.158-7.332-3.9V7.74a.115.115 0 01.156-.108l7.176 2.69 7.177-2.69zm6.035 5.656a.116.116 0 01-.008.11.117.117 0 01-.097.054h-4.042a.115.115 0 01-.105-.164l1.548-3.318V6.464c0-.049.03-.092.075-.109l.924-.347a.116.116 0 01.156.108V9.97l1.549 3.318zM11.778 9.122a.243.243 0 01-.081-.014L.15 4.778a.23.23 0 010-.433L11.697.015A.223.223 0 0111.778 0c.027 0 .055.004.081.015l11.548 4.33a.231.231 0 010 .432l-11.548 4.33a.242.242 0 01-.08.015z"/></svg>