<svg xmlns="http://www.w3.org/2000/svg" width="20" height="19"><path fill="#E2C56A" d="M5.21 7.092c-1.918 0-3.473-1.588-3.473-3.546C1.737 1.588 3.292 0 5.21 0s3.473 1.588 3.473 3.546c0 1.958-1.555 3.546-3.473 3.546zm5.123 3.782a3.418 3.418 0 00-1.65 2.866v2.246H.839A.849.849 0 010 15.129v-3.516c0-1.832 1.476-3.31 3.242-3.31h3.936c1.534 0 2.807 1.123 3.155 2.571zm4.486-.857c-1.918 0-3.473-1.587-3.473-3.546 0-1.958 1.555-3.546 3.473-3.546s3.473 1.588 3.473 3.546c0 1.959-1.555 3.546-3.473 3.546zm1.968 1.3c1.765 0 3.242 1.478 3.213 3.31v3.516a.849.849 0 01-.84.857h-8.712a.849.849 0 01-.839-.857v-3.516c0-1.832 1.476-3.31 3.242-3.31h3.936z"/></svg>