<svg xmlns="http://www.w3.org/2000/svg" width="26" height="26"><defs><linearGradient id="a" x1="50%" x2="50%" y1="100%" y2=".438%"><stop offset="0%" stop-color="#FAD961"/><stop offset="100%" stop-color="#F89F3C"/></linearGradient></defs><g fill="none"><path fill="url(#a)" d="M13 0C5.832 0 0 5.832 0 13s5.832 13 13 13 13-5.832 13-13S20.168 0 13 0z" transform="rotate(-180 13 13)"/><path fill="#FFF" d="M24.98 12.776c0 4.735-2.896 8.813-7.049 10.675 1.134-1.192 1.834-2.781 1.834-4.53 0-3.682-3.08-6.68-6.863-6.68-3.179 0-5.765-2.516-5.765-5.61 0-3.094 2.586-5.611 5.765-5.611 6.66 0 12.078 5.275 12.078 11.756zm-12.078-8.55c-1.212 0-2.196.958-2.196 2.137 0 1.18.984 2.138 2.196 2.138 1.211 0 2.196-.958 2.196-2.138s-.985-2.137-2.196-2.137zm0 12.825c1.211 0 2.196.958 2.196 2.138s-.985 2.137-2.196 2.137c-1.212 0-2.196-.957-2.196-2.137 0-1.18.984-2.138 2.196-2.138z"/></g></svg>