<svg xmlns="http://www.w3.org/2000/svg" width="46" height="46"><defs><linearGradient id="a" x1="50%" x2="50%" y1="100%" y2=".438%"><stop offset="0%" stop-color="#FAD961"/><stop offset="100%" stop-color="#F89F3C"/></linearGradient></defs><g fill="none"><path fill="url(#a)" d="M23 0C10.317 0 0 10.317 0 23s10.317 23 23 23 23-10.317 23-23S35.683 0 23 0z" transform="rotate(-180 23 23)"/><path fill="#FFF" d="M44.196 22.604c0 8.377-5.125 15.592-12.472 18.886 2.007-2.108 3.244-4.92 3.244-8.013 0-6.517-5.447-11.819-12.141-11.819-5.625 0-10.2-4.453-10.2-9.927 0-5.474 4.575-9.927 10.2-9.927 11.782 0 21.37 9.333 21.37 20.8zM22.826 7.477c-2.144 0-3.885 1.694-3.885 3.781 0 2.088 1.74 3.782 3.886 3.782 2.142 0 3.885-1.694 3.885-3.782 0-2.087-1.743-3.781-3.885-3.781zm0 22.69c2.143 0 3.886 1.695 3.886 3.782 0 2.088-1.743 3.782-3.885 3.782-2.145 0-3.886-1.694-3.886-3.782 0-2.087 1.74-3.782 3.886-3.782z"/></g></svg>