<svg xmlns="http://www.w3.org/2000/svg" xmlns:xlink="http://www.w3.org/1999/xlink" width="142" height="34"><defs><linearGradient id="b" x1="50%" x2="50%" y1="0%" y2="100%"><stop offset="0%" stop-color="#FAD961"/><stop offset="100%" stop-color="#F76B1C"/></linearGradient><path id="a" d="M6.948 6.8h12.42l-.504 2.88h-8.1L6.84 32H2.52L6.948 6.8zm18.684 9.36c-.552 0-1.062.102-1.53.306-.468.204-.906.564-1.314 1.08-.408.516-.774 1.218-1.098 2.106-.324.888-.606 2.004-.846 3.348-.24 1.344-.354 2.46-.342 3.348.012.888.114 1.59.306 2.106.192.516.468.876.828 1.08.36.204.768.306 1.224.306.456 0 .87-.072 1.242-.216.372-.144.666-.312.882-.504l2.268-12.96h-1.62zM28.8 32h-3.06l-.36-1.08h-.18c-.456.36-1.02.69-1.692.99-.672.3-1.512.45-2.52.45-.912 0-1.71-.168-2.394-.504-.684-.336-1.23-.876-1.638-1.62-.408-.744-.66-1.71-.756-2.898-.096-1.188.012-2.634.324-4.338.288-1.704.696-3.15 1.224-4.338.528-1.188 1.182-2.154 1.962-2.898a7.014 7.014 0 012.754-1.62c1.056-.336 2.256-.504 3.6-.504 1.272 0 2.34.09 3.204.27.864.18 1.716.45 2.556.81L28.8 32zm9.504-2.88c.144.192.372.36.684.504.312.144.696.216 1.152.216.456 0 .9-.102 1.332-.306.432-.204.84-.564 1.224-1.08.384-.516.738-1.218 1.062-2.106.324-.888.606-2.004.846-3.348.24-1.344.348-2.46.324-3.348-.024-.888-.132-1.59-.324-2.106-.192-.516-.468-.876-.828-1.08a2.439 2.439 0 00-1.224-.306c-.456 0-.846.072-1.17.216-.324.144-.63.312-.918.504l-2.16 12.24zm6.12-15.48c.888 0 1.68.168 2.376.504.696.336 1.254.876 1.674 1.62.42.744.672 1.71.756 2.898.084 1.188-.018 2.634-.306 4.338-.312 1.704-.726 3.15-1.242 4.338-.516 1.188-1.116 2.154-1.8 2.898-.684.744-1.458 1.284-2.322 1.62a7.58 7.58 0 01-2.772.504c-.624 0-1.182-.084-1.674-.252a4.178 4.178 0 01-1.242-.648l-1.368 7.74h-4.32L36.648 14h3.06l.324 1.08h.18c.456-.36 1.02-.69 1.692-.99.672-.3 1.512-.45 2.52-.45zM59.328 29.3l-1.692-8.64h-.144L54.72 32h-4.14l4.428-18h4.68l2.124 10.98h.144L67.968 14h4.68L70.74 32H66.6l1.188-11.34h-.144l-4.716 8.64h-3.6zm24.66-13.32c-.408 0-.804.102-1.188.306-.384.204-.75.57-1.098 1.098-.348.528-.678 1.248-.99 2.16-.312.912-.588 2.064-.828 3.456-.264 1.392-.402 2.544-.414 3.456-.012.912.066 1.632.234 2.16.168.528.408.894.72 1.098.312.204.672.306 1.08.306.408 0 .804-.102 1.188-.306.384-.204.756-.57 1.116-1.098.36-.528.69-1.248.99-2.16.3-.912.582-2.064.846-3.456.24-1.392.366-2.544.378-3.456.012-.912-.066-1.632-.234-2.16-.168-.528-.408-.894-.72-1.098a1.929 1.929 0 00-1.08-.306zm.396-2.34c1.176 0 2.184.168 3.024.504.84.336 1.5.876 1.98 1.62.48.744.768 1.71.864 2.898.096 1.188 0 2.634-.288 4.338-.312 1.704-.726 3.15-1.242 4.338-.516 1.188-1.146 2.154-1.89 2.898a6.745 6.745 0 01-2.538 1.62c-.948.336-2.01.504-3.186.504-1.176 0-2.184-.168-3.024-.504a4.016 4.016 0 01-1.962-1.62c-.468-.744-.756-1.71-.864-2.898-.108-1.188-.006-2.634.306-4.338.288-1.704.69-3.15 1.206-4.338.516-1.188 1.146-2.154 1.89-2.898a6.745 6.745 0 012.538-1.62c.948-.336 2.01-.504 3.186-.504zM96.48 32h-4.32l3.168-18h4.32l-1.332 7.56h4.86l1.332-7.56h4.32l-3.168 18h-4.32l1.332-7.74h-4.86L96.48 32zm19.368.36a9.069 9.069 0 01-2.124-.234c-.648-.156-1.188-.45-1.62-.882-.432-.432-.732-1.02-.9-1.764-.168-.744-.144-1.704.072-2.88l2.232-12.6h4.32l-2.232 12.6c-.12.624-.132 1.146-.036 1.566.096.42.258.756.486 1.008.228.252.504.426.828.522.324.096.666.144 1.026.144.456 0 .87-.072 1.242-.216.372-.144.666-.312.882-.504L122.688 14h4.32l-3.168 18h-3.06l-.36-1.08h-.18c-.456.36-1.032.69-1.728.99-.696.3-1.584.45-2.664.45zm21.384-16.2c-.36 0-.72.048-1.08.144-.36.096-.696.27-1.008.522a3.518 3.518 0 00-.828 1.008c-.24.42-.42.942-.54 1.566-.096.576-.096 1.062 0 1.458.096.396.258.714.486.954.228.24.504.408.828.504.324.096.666.144 1.026.144h1.98l1.116-6.3h-1.98zm-4.068 8.028a4.639 4.639 0 01-1.656-.36 3.524 3.524 0 01-1.278-.918c-.348-.396-.6-.888-.756-1.476-.156-.588-.162-1.266-.018-2.034.216-1.176.558-2.136 1.026-2.88a5.387 5.387 0 011.764-1.764c.708-.432 1.518-.726 2.43-.882a17.76 17.76 0 012.988-.234c1.368 0 2.532.054 3.492.162.96.108 1.86.294 2.7.558L140.76 32h-4.32l1.188-6.84h-.684c-.936 0-1.704.54-2.304 1.62l-1.548 2.7c-.528.912-1.122 1.62-1.782 2.124-.66.504-1.494.756-2.502.756-.648 0-1.188-.06-1.62-.18a4.19 4.19 0 01-.648-.18l.288-1.8c.624 0 1.104-.114 1.44-.342.336-.228.588-.474.756-.738l1.296-2.34c.456-.816.894-1.392 1.314-1.728.42-.336.918-.576 1.494-.72l.036-.144z"/></defs><g fill="none" transform="translate(-2.042 -6)"><use fill="#FFF" xlink:href="#a"/><use fill="url(#b)" xlink:href="#a"/></g></svg>