<svg xmlns="http://www.w3.org/2000/svg" width="57" height="76"><defs><linearGradient id="a" x1="50%" x2="50%" y1="0%" y2="100%"><stop offset="0%" stop-color="#FAD961"/><stop offset="100%" stop-color="#F76B1C"/></linearGradient></defs><g fill="none"><path fill="url(#a)" d="M28.869.618C13.488.618.975 13.131.975 28.512c0 10.254 9.298 25.773 27.894 46.559 18.595-20.786 27.893-36.305 27.893-46.56C56.762 13.132 44.25.619 28.87.619z"/><path fill="#FFF" d="M52.839 28.864c0 10.159-6.216 18.91-15.126 22.904 2.434-2.556 3.934-5.967 3.934-9.718 0-7.903-6.606-14.333-14.725-14.333-6.82 0-12.369-5.4-12.369-12.04 0-6.638 5.549-12.039 12.37-12.039 14.289 0 25.916 11.32 25.916 25.226zM26.922 10.518c-2.6 0-4.712 2.055-4.712 4.586 0 2.532 2.111 4.587 4.712 4.587 2.599 0 4.712-2.055 4.712-4.587 0-2.531-2.113-4.586-4.712-4.586zm0 27.519c2.599 0 4.712 2.054 4.712 4.586 0 2.532-2.113 4.587-4.712 4.587-2.6 0-4.712-2.055-4.712-4.587 0-2.532 2.111-4.586 4.712-4.586z"/></g></svg>