<svg xmlns="http://www.w3.org/2000/svg" width="27" height="15"><path fill="#BDBDBD" d="M25.94.659h-4.38c-.365 0-.7.196-.872.51 0 0-1.748 3.152-2.31 4.213-1.51 2.855-2.487 1.959-2.487.634v-4.57c0-.794-.658-1.439-1.47-1.439h-3.295a2.661 2.661 0 00-2.331 1.06s1.673-.265 1.673 1.941c0 .548.028 2.122.055 3.442a.95.95 0 01-.614.908.985.985 0 01-1.081-.25A27.912 27.912 0 015.5 1.184a.924.924 0 00-.84-.525H.682a.68.68 0 00-.559.282.65.65 0 00-.08.61C1.252 4.799 6.458 15 12.402 15h2.5a.978.978 0 00.989-.968v-1.479a.95.95 0 01.585-.872.987.987 0 011.051.18l2.994 2.754c.269.247.624.385.993.385h3.932c1.896 0 1.896-1.288.862-2.285-.727-.702-3.353-3.412-3.353-3.412a1.307 1.307 0 01-.104-1.725 1257.08 1257.08 0 002.825-3.65c.805-1.049 2.261-3.269.265-3.269z"/></svg>